<svg width="180" height="180" fill="none" xmlns="http://www.w3.org/2000/svg"><path fill="#EEE" d="M0 0h180v180H0z"/><path d="M127.4 96.7c-.4-10.5-2-21-2-31.6 0-8.6 1.6-17.5-1.6-25.7 0-.8.4-2 .4-2.8.8-4.3-13-2-15 2-1.2 1.2-2 2.3-1.6 3.9 0 .4.4.8.4 1.2a395 395 0 01-10.3 37c-1.6 4.7-3.6 9.4-5.1 14-2.4-4.3-4.8-8.5-6.8-13.2-5.5-13.7-10.3-27.3-17-40.2.8-5.8-12.7-5.4-15.4 0A33.4 33.4 0 0051.8 62c1.2 8.2 1.6 16 1.6 24.2 0 15.5 1.6 31.1 1.6 46.7-1.6 1.6-2 3.5-.4 5.5l2.3 2.3c3.6 2.8 13.9.4 13.9-5 0-16.4-1.2-32.4-1.6-48.8v-4.6c.4.3.4 1.1.8 1.5a111 111 0 008.7 18.3c3.6 5.9 5.2 12.1 7.1 18.4-.8.7-1.2 2-.8 2.7 0 .8.4 1.2 1.2 1.6 2.4 2.3 7.5 1.1 10 0 1.1-.4 2.3-1.2 3-1.6 1.3-.8 3.6-2.7 2.9-4.7 0-.4-.4-.8-.4-1.2 2-5 2.7-10 4-15.5a130 130 0 015-16.4c.5 2.3.5 5 .9 7.4.7 10.1 0 19.9 0 30 0 3.5.4 6.2.7 9.8.4 1.1 1.6 7 1.2 7.4-2.3 2.3-1.5 5 1.6 5.4a14 14 0 0011.1-2.7c4.7-4.3 2.4-11.3 1.6-16.8-2.4-9.3-.4-19.9-.4-29.2z" fill="#000"/></svg>