<svg width="23" height="20" fill="none" xmlns="http://www.w3.org/2000/svg"><path d="M23 4.2c-.2-.4-1-.3-1.4-.4h-1c0-.4.2-.6.4-1 .1-.4.3-.7.2-1.3l.3-.6c.1 0 .2-.5.1-.7-.1-.2-.3-.2-.6-.2l-.2.1-1.2 1.4h-.1l-.1.1-.4.2c-.3.2-.5.4-.9.5L16.3 2c-1.2.1-2.3.2-3 .7-.8.3-1.4 1-2 1.6 0 .3-.3.4-.4.7v.2l-.2.5s.2.4 0 .5c-.8-.1-1.4-.6-2-1-.7-.5-1.5-.7-2-1.2-.7-.3-1.3-.8-1.8-1.3l-.7-.9c-.4-.2-.2-.9-.7-.9-.3 0-.3.2-.4.4 0 .2-.4.2-.4.5v.1c-.2 1.1-.5 2-.5 3.4 0 .4.3.7.5 1-.3 0-.6.2-.8.5-.1 1 .4 1.6.7 2.3 0 .4.3.7.5 1 0 .2.2.3.3.4l.1.2c0 .1.3.2.1.2-.4.1-1 .1-1.2.4v1.1l.2.5L4.2 14l1.8.4c0 .3-.2.6-.5.8-.8.4-1.8.5-2.7.7l-1.5.2c-.3 0-.9 0-1 .2-.2 0-.2 0-.3.2 0 .4.1.7.4.9 0 .3.2.3.4.4l.4.4c.5.5 1.3.8 1.8 1 .8.3 1.6.5 2.5.6l2.7.2h1l1.8.1.5-.1c.5-.3 1.2-.4 1.5-.7.6-.2 1-.6 1.6-1 .9-.7 1.8-1.2 2.4-2.3.2-.2.4-.4.4-.7l.6-.8 1-1.4.8-1.6c0-.4.3-.5.3-.9.2-.2.2-.7.4-.9l.1-.6c0-1.3 0-2.4-.3-3.4.6-.2 1.2-.3 1.6-.7.8.4 1.3 0 1-.7zm-3.3 4c-.2 1-.6 1.5-1 2.1l-.1 1c-.2.2-.3.6-.4 1l-.5.8-1.2 1.6c-.3.7-.8 1-1.2 1.6l-1.4 1.3c-.5.2-.9.4-1.2.7l-.7.3c-.2 0-.5 0-.7.3-1 0-2.2.2-3.5 0l-3-.3c-.8-.2-1.4-.7-2.2-1 .2-.2.6-.2 1-.2 0-.2.4 0 .4-.1l.5-.1c.6-.2 1.2-.3 1.6-.6.3-.1.4-.4.7-.6l.2-.4c0-.3.2-.4.1-.9.1-.2.3-.3.3-.7 0 0 0-.3-.3-.4 0-.2-.4 0-.4-.2h-.6c-.1 0-.4 0-.4-.2-.8 0-1.3-.4-1.9-.7.4-.3 1-.4 1.3-.7.5 0 1 0 1-.7s-.7-.7-1.2-.8C4 9.6 3.7 8.6 3 7.8c.2-.2.6-.2.7-.4.5 0 .5-.3.7-.5 0-.5-.3-.6-.6-.8l-.7-.7.1-2.5.1.1.8 1.2c.5.4.9 1 1.6 1.2.4.4 1 .6 1.5 1l1.7.9c.6.2 1 .7 2 .6l.5-.3c.3-.5-.1-1.1 0-1.6.4-.7.9-1 1.4-1.6l.7-.5c.3 0 .7-.2 1-.4H17.5l.7.4c.8.7 1.3 1.8 1.4 3v1.4zm.2-5.6c0 .3-.1.7-.5.8l-.1-.2c0-.2.2-.2.3-.3l.3-.3s.1 0 0 0zm-5.3 3l.5.5c0 .2.3.3.6.4 0-.2.3 0 .4-.2.2 0 .2-.2.2-.3 0-.5 0-1-.3-1.4-.7-.5-1.7 0-1.4 1z" fill="#231F20"/></svg>